<?xml version="1.0" encoding="utf-8"?>
<!-- Generator: Adobe Illustrator 24.2.2, SVG Export Plug-In . SVG Version: 6.00 Build 0)  -->
<svg version="1.1" xmlns="http://www.w3.org/2000/svg" xmlns:xlink="http://www.w3.org/1999/xlink" x="0px" y="0px"
	 viewBox="0 0 500 500" style="enable-background:new 0 0 500 500;" xml:space="preserve">
<style type="text/css">
	.st0{display:none;}
	.st1{display:inline;fill:#E6FBFC;}
	.st2{fill:#CEE6F7;}
	.st3{fill:#285672;}
	.st4{fill:#F0AD1D;}
	.st5{fill:#E59D0E;}
	.st6{clip-path:url(#SVGID_2_);fill:#3D738E;}
	.st7{fill:#1F4C63;}
	.st8{clip-path:url(#SVGID_4_);fill:#3D738E;}
	.st9{clip-path:url(#SVGID_6_);fill:#3D738E;}
	.st10{opacity:0.5;fill:#A6E2E2;}
	.st11{fill:#F4B1A2;}
	.st12{fill:#396F8E;}
	.st13{fill:#316389;}
	.st14{fill:#3F7393;}
	.st15{fill:#4B7DA3;}
	.st16{fill:#3E7391;}
	.st17{fill:#2D637A;}
	.st18{fill:#EA9F92;}
	.st19{fill:#4175A0;}
	.st20{fill:none;stroke:#1F5976;stroke-width:1.1839;stroke-miterlimit:10;}
	.st21{fill:#2F7F62;}
	.st22{fill:#276B51;}
	.st23{fill:#142E4C;}
	.st24{fill:#285E71;}
	.st25{fill:#86C5DB;}
	.st26{fill:#6FB6C9;}
	.st27{fill:#57AEA2;}
	.st28{fill:#70C8BD;}
	.st29{fill:#EDF1C5;}
	.st30{fill:#DBE9B0;}
	.st31{fill:#3E7D71;}
	.st32{fill:#18937C;}
	.st33{fill:#93D3CD;}
	.st34{fill:#61B5A7;}
	.st35{fill:#F9A11B;}
	.st36{fill:#EA8023;}
	.st37{fill:#448B87;}
	.st38{fill:#82E097;}
	.st39{fill:#409694;}
	.st40{fill:#69CE9F;}
	.st41{fill:#FDFFCA;}
</style>
<g id="BACKGROUND" class="st0">
	<rect x="0" y="0" class="st1" width="500" height="500"/>
</g>
<g id="OBJECTS">
	<path class="st2" d="M187,99.5c25.9-4.5,52.3-8.2,77.1-17.1c26.3-9.4,47.6-30.5,75.5-35.3c26.9-4.6,55.7,3.6,76.6,21
		c28.6,23.8,42.7,62.3,41.5,99.4s-16.6,72.9-38.4,103c-28.5,39.3-65.5,72.3-109.4,92.7c-67.1,31.1-179.6,48.1-240.7-4.9
		c-32.9-28.6-45.4-76.1-38.6-119.2c12.8-80.7,78.5-125.8,154-139.2C185.4,99.8,186.2,99.6,187,99.5z"/>
	<g>
		<path class="st3" d="M330.9,178.8v245.7H182.3V178.8c0-41,33.3-74.3,74.3-74.3C297.6,104.5,330.9,137.8,330.9,178.8z"/>
		<path class="st3" d="M458.8,216.5v208.7h-115V216.5c0-31.8,25.7-57.5,57.5-57.5S458.8,184.7,458.8,216.5z"/>
		<path class="st3" d="M169,216.5v208.7H54V216.5c0-31.8,25.8-57.5,57.5-57.5S169,184.7,169,216.5z"/>
		<g>
			<path class="st4" d="M239.7,176.9c-9.9-9.9-9.9-25.9,0-35.8c7.2-7.2,17.7-9.2,26.7-5.8c-5.4-0.2-10.8,1.7-14.9,5.8
				c-7.8,7.8-7.8,20.5,0,28.3s20.5,7.8,28.3,0c0.6-0.6,1.2-1.2,1.7-1.9c-1.2,3.4-3.2,6.6-5.9,9.4
				C265.6,186.7,249.6,186.7,239.7,176.9z"/>
			<path class="st5" d="M274.2,178.1c-9.9,8.7-25,8.3-34.5-1.2c-9.9-9.9-9.9-25.9,0-35.8c1.2-1.2,2.6-2.3,4-3.3
				c-0.4,0.4-0.9,0.8-1.3,1.2c-9.9,9.9-9.9,25.9,0,35.8C251.1,183.4,264.4,184.5,274.2,178.1z"/>
		</g>
		<g>
			<defs>
				<path id="SVGID_1_" d="M256.6,104.5L256.6,104.5c-41,0-74.3,33.3-74.3,74.3v245.7h148.6V178.9
					C330.9,137.8,297.6,104.5,256.6,104.5z"/>
			</defs>
			<clipPath id="SVGID_2_">
				<use xlink:href="#SVGID_1_"  style="overflow:visible;"/>
			</clipPath>
			<path class="st6" d="M153.4,194.9h92.8c0,0-1.4-18.1-24.2-12.7c0,0-3.3-8.9-16-8.2c-12.7,0.7-13.5,10.4-13.5,10.4
				s-1.4-3.7-6.4-3.2c-4.4,0.4-5.7,4.5-5.7,4.5S162,184.5,153.4,194.9z"/>
			<path class="st6" d="M265.8,219.2h92.8c0,0-1.4-18.1-24.2-12.7c0,0-3.3-8.9-16-8.2c-12.7,0.7-13.5,10.4-13.5,10.4
				s-1.4-3.7-6.4-3.2c-4.4,0.4-5.7,4.5-5.7,4.5S274.3,208.8,265.8,219.2z"/>
		</g>
		<g>
			<path class="st7" d="M157.5,323.3v53.3h-13.6v-83h3.2c1.5,0,2.8-1.2,2.8-2.8v-7.5c0-0.9-0.4-1.7-1.1-2.2l0.1-0.1
				c4.8-4.8,6.5-12,4.4-18.4c-2.3-7-8.1-8.9-13.2-13.2c-4-3.4-7.4-7.5-10.1-11.9c0,0-1.5-2.4-1.5-2.4c-4.4,8.1-10.7,14.1-18.3,19.1
				c-9.1,6-9.6,19.3-2.1,26.9c0,0,0,0,0.1,0.1c-0.6,0.5-1,1.3-1,2.1v7.5c0,1.5,1.2,2.8,2.8,2.8h3.3v103.3c0,0,0,0,0,0v28.2H169
				v-38.9v-9.6v-70.5C162.2,308.9,157.5,315.5,157.5,323.3z"/>
			<path class="st7" d="M328.4,276.9c-6.3-19.5-22.8-24.8-37-37.1c-11.1-9.6-20.8-20.9-28.4-33.4c0,0-4.1-6.8-4.1-6.8
				c-12.2,22.7-29.9,39.6-51.3,53.6c-17.5,11.4-23.7,32.6-19.1,51.6h-6.2v72v9.6v38.3h148.6v-38.3v-9.6v-72h-1.6
				C331.6,295.6,331.4,285.9,328.4,276.9z"/>
			<path class="st7" d="M407.1,281.2L407.1,281.2c4.8-4.8,6.6-12,4.5-18.5c-2.3-7-8.1-8.9-13.2-13.2c-4-3.4-7.4-7.5-10.1-11.9
				c0,0-1.5-2.4-1.5-2.4c-4.4,8.1-10.7,14.1-18.3,19.1c-9.1,6-9.6,19.3-2.1,26.9c0,0,0,0,0.1,0.1c-0.6,0.5-1,1.3-1,2.1v7.5
				c0,1.5,1.2,2.8,2.8,2.8h3.3v83h-13.6v-53.3c0-8.7-5.9-16-14-18v71.4v9.6v38.9h58.3V397c0,0,0,0,0,0V293.6h3.2
				c1.5,0,2.8-1.2,2.8-2.8v-7.5C408.2,282.5,407.8,281.7,407.1,281.2z"/>
		</g>
		<g>
			<defs>
				<path id="SVGID_3_" d="M169,216.5v208.7H54V216.5c0-31.8,25.8-57.5,57.5-57.5S169,184.7,169,216.5z"/>
			</defs>
			<clipPath id="SVGID_4_">
				<use xlink:href="#SVGID_3_"  style="overflow:visible;"/>
			</clipPath>
			<path class="st8" d="M38,248.3h65.2c0,0-1-12.7-17-8.9c0,0-2.3-6.3-11.3-5.8c-8.9,0.5-9.5,7.3-9.5,7.3s-1-2.6-4.5-2.2
				c-3.1,0.3-4,3.1-4,3.1S44.1,241,38,248.3z"/>
			<path class="st8" d="M100.1,286.1h65.2c0,0-1-12.7-17-8.9c0,0-2.3-6.3-11.3-5.8s-9.5,7.3-9.5,7.3s-1-2.6-4.5-2.2
				c-3.1,0.3-4,3.1-4,3.1S106.1,278.8,100.1,286.1z"/>
		</g>
		<g>
			<defs>
				<path id="SVGID_5_" d="M343.9,216.5v208.7h115V216.5c0-31.8-25.8-57.5-57.5-57.5S343.9,184.7,343.9,216.5z"/>
			</defs>
			<clipPath id="SVGID_6_">
				<use xlink:href="#SVGID_5_"  style="overflow:visible;"/>
			</clipPath>
			<path class="st9" d="M474.8,248.3h-65.2c0,0,1-12.7,17-8.9c0,0,2.3-6.3,11.3-5.8c8.9,0.5,9.5,7.3,9.5,7.3s1-2.6,4.5-2.2
				c3.1,0.3,4,3.1,4,3.1S468.8,241,474.8,248.3z"/>
			<path class="st9" d="M406.7,272.8h-65.2c0,0,1-12.7,17-8.9c0,0,2.3-6.3,11.3-5.8c8.9,0.5,9.5,7.3,9.5,7.3s1-2.6,4.5-2.2
				c3.1,0.3,4,3.1,4,3.1S400.6,265.5,406.7,272.8z"/>
		</g>
	</g>
	<g>
		<path class="st10" d="M373.6,466.3H192.4c-3.9,0-7.1-3.2-7.1-7.1l0,0c0-3.9,3.2-7.1,7.1-7.1h181.2c3.9,0,7.1,3.2,7.1,7.1l0,0
			C380.7,463.1,377.5,466.3,373.6,466.3z"/>
		<g>
			<g>
				<path class="st11" d="M241,446.3c-0.1,0-18,0-18,0l-7.5,0.3c-1.9,0.1-3.4,1.5-3.3,3.3l0.4,11.4c0.1,2.2,2.1,3.8,4.5,3.5l0,0
					c1.3-0.1,2.4-0.8,3-1.8l0.5-0.7l21.8-3.8C242.4,458.4,247.7,449.5,241,446.3z"/>
				<path class="st12" d="M293.8,417.6l-58.2-2.9c-7,0.1-12.9,5-14.3,11.8l0,0c-1.9,9.3,5.5,17.9,15,17.6l55.5-2.2L293.8,417.6z"/>
				<polygon class="st13" points="348.7,418.4 293,417.5 277.8,434.9 315.9,457.2 				"/>
				<path class="st14" d="M318.9,421.1l29.9-2.8l2.6,10.3c2.6,10.5-3.5,21.2-13.9,24.3l-11.7,3.5c-10.7,3.2-21.7-3.9-23.1-15l0,0
					C301.3,431.3,308.7,422.1,318.9,421.1z"/>
				<path class="st15" d="M240.8,439.6l74.3-19.1c10-2.7,20,4.1,22.1,13.8l0,0c2.2,10.3-5.7,20.2-16.7,20.9l-78.7,4.6l-1-1.2
					C237.4,454.4,237.6,444.1,240.8,439.6L240.8,439.6z"/>
				<path class="st16" d="M278.7,462.8l1.9-0.9c7.1-3.3,11.6-10.2,11.8-18l0,0l-13.7,3.1L278.7,462.8z"/>
				<path class="st17" d="M278.1,461.6l1.7-0.9c6.3-3.3,10.3-9.8,10.5-17l0,0l-12.7,2.7L278.1,461.6z"/>
				<path class="st18" d="M283.2,456.2c-0.3,0-14.2-3.9-14.1-4.9c0.2-1,7.3-12.5,7.3-12.5l14.1,5.3L283.2,456.2z"/>
				<path class="st11" d="M337.8,461.9c-0.8,2.6-3,3.2-4.9,3.1c-2-0.1-3.9-1-5.2-2.5l-1-1.1l-5.2,0.3l-0.1,0l-20.4,1.1
					c-0.4,0-0.8,0-1.2,0c-6.1,0-12-2.4-16.4-6.7c-0.4-1.4-0.2-2.8,0.5-4.1c0.9-1.7,2.2-4.1,2.6-4.8c0.3-0.6,2.9-2.5,5-3
					c2.1-0.6,3.2-0.4,5.4-0.1l2.3,0.4l15.3-3.2c0.9-0.2,1.8-0.3,2.8-0.4l2.2-0.1c2.1-0.1,4.1,0.7,5.6,2.2
					C329.5,447.7,339.1,457.9,337.8,461.9z"/>
				<path class="st19" d="M243.7,417l48.7,27l-3.5,2.2c-5.8,3.7-9.5,9.8-10.2,16.6h0l-47.5-16.7c-9.9-3.5-13.9-15.3-8.2-24.1l0,0
					C227.5,415.1,236.6,412.9,243.7,417z"/>
				<path class="st20" d="M286.8,443.2"/>
				<path class="st20" d="M253.2,415.7"/>
			</g>
			<g>
				<g>
					<path class="st21" d="M217.2,398.4c0,0,0.1,12,12,13.8l2.1-15.1L217.2,398.4z"/>
					<path class="st22" d="M218.4,398.3c0,0,0.1,11.1,11.1,12.7l1.9-13.9L218.4,398.3z"/>
					<path class="st11" d="M257.9,379.9c0,2.8-1.1,5.6-3.3,7.8l-20.3,15.9l-7.7,6l-4,3.2l-7.7-8.7l3.9-4.7l2.8-3.4l18.9-22.5
						c4.2-4.1,10.7-4.3,14.5-0.4C257,375,257.9,377.5,257.9,379.9z"/>
					<path class="st18" d="M234.5,403.4c0,0-0.1,0.1-0.2,0.3l-8.5,6.7c0.7-8.2-7.3-10.5-7.3-10.5l3.2-3.8L234.5,403.4z"/>
					<path class="st21" d="M296.4,334.8c-0.2,2-1,4-2.3,5.7c-0.1,0.2-0.3,0.4-0.4,0.6c-1.5,1.8-2.9,3.7-4.3,5.5
						c-3.2,4.1-6.3,8.2-9.4,12.3c0,0,0,0,0,0c-0.4,0.5-0.8,1-1.2,1.5c-6.5,8.5-13,17.1-19.9,25.1c0,0,0,0,0,0
						c-5,5.8-11.6,10.6-17.3,15.7c-4.1,3.6-8.2,7.3-12.3,11l-0.2-1.3l-0.5-2.6l-0.1-0.3c-0.9-4.7-4.4-8.3-8.9-9.3
						c-0.4-0.1-0.8-0.2-1.2-0.2c-0.4-0.1-0.8-0.1-1.2-0.1c8.8-10.1,17.4-20.7,26.8-30.2c1.8-1.8,3.1-4.1,4.5-6.2
						c8.3-11.8,16.4-23.6,24.7-35.4c1.9-3.1,4.9-5.1,8.2-5.8c2.9-0.6,6-0.2,8.8,1.4C294.8,324.9,297.1,329.9,296.4,334.8z"/>
					<path class="st22" d="M280,345.7v13.2c0,0,0,0,0,0c-0.1,0.1-0.5,0.9-1.1,2c0-0.3,0-0.4-0.1-0.5c-6.5,8.5-13,17.1-19.9,25.1
						c0.5-0.7,17.2-21.4,18.9-33C278.2,349.6,279.7,347.5,280,345.7z"/>
					<path class="st11" d="M210.9,404.7c-1.3,1-2.4,2.1-3.6,3.2c-2,1.8-4,3.8-5.3,6.2c-4,6.9-3.8,16.8,2,22.7c0.4,0.4,0.9,0.8,1.5,1
						c0.6,0.2,1.3,0.2,1.7-0.2c0.5-0.4,0.6-1.1,0.5-1.7c-0.1-1.8-1.1-3.5-1.6-5.2c-0.6-2.2-0.4-4.5,0.2-6.7c0.4-1.7,1.1-3.3,2.3-4.6
						c1.5-1.6,3.1-1.8,5.1-2.2c1.1-0.2,2,0.7,1.9,1.8c-0.3,2.8-0.5,7.7,2.2,9.5c1.6,1.1,3.7-0.2,3.6-2.1l-0.2-3.6
						c-0.1-1,0.1-1.6,0.4-2.1c1-1.7,3.5-5.9,3.7-8.2c0.5-6.8-5.5-12.6-12.1-9.1C212.3,403.6,211.5,404.1,210.9,404.7z"/>
				</g>
				<path class="st21" d="M347.9,410.6l0.8,7.7l-14.5,1.5c-0.1,0-0.3,0-0.4,0l-0.3,0l-0.5,0l-8.3,0.8l-2.5,0.3c-0.4,0-0.7,0.1-1,0.1
					c-0.5,0.1-1.1,0.1-1.7,0.1c-0.3,0-0.6,0-0.9,0c-0.1,0-0.3,0-0.4,0c-0.3,0-0.6,0-0.9,0h0c0,0,0,0-0.1,0c-0.1,0-0.3,0-0.4,0
					c-0.1,0-0.2,0-0.3,0h-0.1c-0.6,0-1.3,0-1.9,0.1h-2c-0.3,0-0.6,0-0.9,0c-0.3,0-0.7,0-1,0h-0.6c-2.6,0-5.3-0.1-7.9-0.2
					c-2.9-0.2-5.8-0.4-8.7-0.9c-0.9-0.1-1.8-0.3-2.7-0.5c-1.3-0.3-2.5-0.6-3.8-0.9c-1.8-0.5-3.7-1.2-5.5-1.9c0,0,0,0,0,0l1.6-14
					c0.1-1.1,0-2.2-0.1-3.3c0,0-3.8-34-4.3-38.8c0-0.3,0-0.4-0.1-0.5c0,0,0,0,0,0l-1-7.9l-1.7-12.8l-0.6-4.7l20.9-0.2l32.8-0.4
					l15.1-0.2l5.1-0.1l-0.9,13l-2.1,31.5l-0.6,8.1l-0.2,3.3l0,0.4l0.6,5.4L347.9,410.6C347.9,410.6,347.9,410.6,347.9,410.6z"/>
				<path class="st22" d="M348.7,418.4l-26.4,2.7c-0.4,0-0.7,0.1-1,0.1c-0.5,0.1-1.1,0.1-1.7,0.1c-0.4,0-0.9,0.1-1.3,0.1
					c-0.6,0-1.2,0.1-1.8,0.1c6.4-6.8,25.9-30.2,29.4-34.5l-0.2,3.3l0.6,5.8L348.7,418.4z"/>
				<path class="st22" d="M333,419.9c0,0,17.1-2.4,18.8,11.4c0,0,1.3,0.4,1.3-2.4c0-2.9-3-7.1-5.2-18.2
					C345.8,399.5,333,419.9,333,419.9z"/>
				<path class="st22" d="M326.4,341.7l-5.4,39.2c-0.1,2.1-0.9,4-2.3,5.6l-17,20.3c-1,1.2-1.5,2.8-1.2,4.4c0.4,2.5,1.4,6.1,4,7.2
					c6,2.5,33.1-32.1,33.1-32.1L326.4,341.7z"/>
				<path class="st21" d="M338.2,337l-54.3,5c-2.9,0.3-5.4-0.5-7.4-2c-6.7-4.8-5-15.3,2.6-18.3c3.7-1.4,7-2.8,10.2-4.1
					c1.7-0.7,3.4-1.2,5.1-1.7c9-2.5,18.5-2.7,27.5-0.5c2,0.5,4,1.1,6,1.8l13.3,4.4C350,324.7,347.6,336.2,338.2,337z"/>
				<g>
					<path class="st21" d="M303.1,409.9c0.2,2.2,1.6,10.2,12.5,13.7c0.6,0.2,1.1-0.2,1.2-0.8l1-15.2l-14.2,1.7
						C303.3,409.3,303.1,409.6,303.1,409.9z"/>
					<path class="st22" d="M304.5,408.5c0,0-0.2,10.3,13,13.8l-1.5-12.6L304.5,408.5z"/>
					<path class="st11" d="M343.1,389.8c0,2.4-0.9,4.9-2.7,7L324,411.4l-10.7,9.5l-5.7,5l-9.1-8l6.4-7.7l4.9-5.9l16.5-19.9
						c3.7-4.3,9.9-4.9,13.8-1.5C342.1,384.6,343.1,387.2,343.1,389.8z"/>
					<path class="st18" d="M313.3,420.8c1.4-6.5-8.4-10.7-8.4-10.7l4.9-5.9l14.2,7.1L313.3,420.8z"/>
					<path class="st21" d="M349.5,334.2l-1.7,26.2c0,0,0,0,0,0l-1.8,28.2c-0.1,1.2-0.2,2.3-0.6,3.4c-0.3,1.2-0.8,2.4-1.6,3.7
						c-1.5,2.5-3.3,4.8-5.4,6.8l-21.8,20.7l-0.2-1.9c-0.4-3.4-2-6.4-4.4-8.6c-2.4-2.1-5.3-3.4-8.8-3.4l19.4-22.6
						c0.7-0.8,1.1-1.9,1.1-3l2.5-41.3c0-6.8,9.4-22.7,9.4-22.7C345.9,322.1,350,326.9,349.5,334.2z"/>
					<path class="st11" d="M292.2,415.3l10-3c1-0.3,2.2-0.4,3.2-0.1c2.3,0.6,5.6,2.7,4.7,9.4c-0.2,1.4-1.5,3-2.1,4.2
						c-1,2.2-1.8,4.4-3.1,6.5c-2.1,3.4-5.4,5.6-9.2,6.8c-4.1,1.3-7.4-0.7-11.1-2.3c0,0-7.3,1.8-8.4-0.1c-0.5-0.7-0.5-1.4-0.3-2
						c0.3-0.8,0.9-1.4,1.7-1.7l2.2-0.8c2.3-0.8,4.4-1.9,6.4-3.2l2.2-1.5c1.4-0.9,2.4-2.4,2.9-4c0.1-0.3-0.3-0.5-0.5-0.3
						c-1.4,1.8-3.1,3.5-5.1,4.5c-1.4,0.7-6.8,2-7-0.7c-0.1-1.2,2.8-2.8,3.6-3.5c1.9-1.6,3.6-3.5,5.2-5.4
						C288.9,416.9,290.4,415.8,292.2,415.3z"/>
				</g>
			</g>
			<g>
				<path class="st23" d="M307.7,272.3l13-1.2l1.3,16.2c0.5,7.6-4,14.7-11.2,17.3c-0.1,0-0.1,0.1-0.2,0.1L307.7,272.3z"/>
				<path class="st24" d="M281.8,289.2l-3.7,0.4c-2.4,0.2-4.5-1.1-4.7-2.9l-1.1-9.4l8.1-0.8L281.8,289.2z"/>
				<path class="st11" d="M308.4,326.4l-0.6,0.1c-4.7,0.4-9-2.5-10.3-6.8c-0.1-0.2-0.1-0.4-0.2-0.6c-0.1-0.5-0.2-0.9-0.3-1.4l0-0.1
					l-2.2-22.6l-0.1-1.2c-0.5-5.4,3.4-10.2,8.8-10.7l0.6-0.1c3.7-0.4,7.1,1.4,9.1,4.3c0.1,0.2,0.3,0.4,0.4,0.7c0,0,0,0.1,0.1,0.1
					c0.6,1.1,1.1,2.4,1.2,3.8l0.1,1.4l2.2,22.5C317.8,321,313.8,325.8,308.4,326.4z"/>
				<path class="st18" d="M297.8,319l-0.4,0c-0.1-0.5-0.2-0.9-0.3-1.4l0-0.1l-2.2-22.6l-0.1-1.2c-0.5-5.4,3.4-10.2,8.8-10.7l0.6-0.1
					c3.7-0.4,7.1,1.4,9.1,4.3c0.1,0.2,0.3,0.4,0.4,0.7l1,10.6C315.7,308.8,308.2,318,297.8,319z"/>
				<path class="st11" d="M297.5,316.5l-1.1,0.1c-10.3,1-19.6-6.6-20.6-16.9l-1.8-19l-0.2-2.3c-1-10.3,6.6-19.5,16.9-20.6l1.1-0.1
					c10.3-1,19.6,6.6,20.6,16.9l0.3,2.6l1.8,18.7C315.5,306.3,307.9,315.5,297.5,316.5z"/>
				<g>
					<path class="st23" d="M316,288.2l-3.8,0.4c-2.4,0.2-4.5-1.5-4.8-3.9l-1.4-12.2l8.1-0.8L316,288.2z"/>
					<path class="st11" d="M319.1,287.8c-1,4.1-4.4,6.7-7.6,5.9c-3.2-0.8-4.9-4.8-3.9-8.9c1-4.1,4.4-6.7,7.6-5.9
						C318.5,279.7,320.2,283.7,319.1,287.8z"/>
					<path class="st23" d="M308.2,298.1L308.2,298.1c-1.1,0.1-2.2-0.7-2.3-1.9l-2.5-23.6l4.1-0.4l2.5,23.6
						C310.2,297,309.3,298,308.2,298.1z"/>
					<path class="st23" d="M309,285l-3.7,0.4c-2.4,0.2-4.5-1.1-4.7-2.9l-1.1-9.4l8.1-0.8L309,285z"/>
				</g>
				<path class="st25" d="M320.7,275.3c-1.3,0.5-2.5,0.9-3.7,1.3c-25.3,8.6-40.1,4.6-44.3,3.1c-0.7-0.3-1.3-0.9-1.3-1.7l-0.2-1.8
					c-1.3-13.6,8.6-25.7,22.2-27l1.4-0.1c2.8-0.3,5.6-0.1,8.2,0.6c9.9,2.4,17.8,10.9,18.8,21.7l0.2,1.9
					C322.1,274.1,321.6,275,320.7,275.3z"/>
				<path class="st26" d="M320.7,275.3c-1.3,0.5-2.5,0.9-3.7,1.3c2-13.5-7.3-22.4-14-27c9.9,2.4,17.8,10.9,18.8,21.7l0.2,1.9
					C322.1,274.1,321.6,275,320.7,275.3z"/>
			</g>
		</g>
		<g>
			<polygon class="st27" points="279.5,434.7 264.3,434 196.7,464.1 212.5,463.8 			"/>
			<polygon class="st28" points="267.6,466.4 254.8,467.1 238.1,453.3 230.5,449 226.4,446.6 195.5,429 211.1,429.8 234.3,443 
				238.4,445.3 238.5,445.4 238.5,445.4 245.9,449.6 246,449.7 270.2,463.5 			"/>
			<polygon class="st27" points="270.2,463.5 257.4,464.2 238.1,453.2 230.6,448.9 230.5,448.8 230.7,448.9 230.8,448.9 
				245.6,449.4 			"/>
			<g>
				<g>
					<polygon class="st27" points="268,429.7 237.9,443.1 211.9,428.3 210.9,429.9 236.3,444.3 237.8,443.7 239.1,444.6 
						268.9,431.3 					"/>
					<path class="st29" d="M268,429.7c0,0-29.7,13.1-29.7,13.1c0.1-4.1,3.3-6.9,6.9-8.3c1.8-0.7,3.9-0.9,5.8-1.4
						c3.5-0.9,7-2.1,10.6-2.9L268,429.7z"/>
					<polygon class="st30" points="198.9,427.7 211.9,428.3 234.4,441.1 227.1,443.7 					"/>
					<path class="st29" d="M205.7,428.7c2.2,0.5,4.2,1.9,6.3,2.7c5.6,2.1,15.7,4.4,15.1,12.3l-28.1-16
						C198.9,427.7,205.7,428.7,205.7,428.7z"/>
					<path class="st30" d="M211.9,428.3c2.6,0.9,5.1,1.9,7.7,2.7c3.8,1.2,8.6,1.6,11.5,4.5c0.6,0.6,1.2,1.3,1.5,2.2
						c0.1,0.3,0.4,2.7,0.4,2.7L211.9,428.3z"/>
					<path class="st27" d="M259.6,429.2l-32.6,14.5l-28.1-16l-1.1,1.6l26.9,15.3c0.4,0.2,0.8,0.2,1.2,0.1l1.1-0.4l0.8,0.5
						c0.4,0.3,0.9,0.3,1.3,0.1l31.5-14L259.6,429.2z"/>
					<path class="st29" d="M259.4,429.3l-32.3,14.4c0.1-4,3.2-7.6,6.9-8.9c2.1-0.7,4.5-0.7,6.7-1.2c2.4-0.5,4.7-1.4,7-2.2
						c1.7-0.6,3.3-1.2,5-1.6L259.4,429.3z"/>
					<polygon class="st31" points="228.9,445 239.1,444.6 268.9,431.3 260.6,430.9 					"/>
				</g>
				<polygon class="st32" points="259.6,429.2 268,429.7 268.9,431.3 260.6,430.9 				"/>
			</g>
			<polygon class="st33" points="264.3,434 262.3,430.6 194.6,460.9 196.7,464.1 			"/>
			<polygon class="st33" points="257.4,464.2 254.8,467.1 254.8,467.1 254.8,467.1 233.7,455.2 226.1,450.9 222,448.5 222,448.5 
				193.3,432.3 195.5,429 226.4,446.6 230.5,449 238.1,453.3 			"/>
			<polygon class="st34" points="279.5,434.7 264.3,434 230.5,449 245.6,449.4 			"/>
			<polygon class="st28" points="262.3,430.6 277.5,431.4 279.5,434.7 264.3,434 			"/>
		</g>
	</g>
	<g>
		<path class="st10" d="M178.5,467.4H52.6c-1.6,0-3-1.3-3-3l0,0c0-1.6,1.3-3,3-3h125.9c1.6,0,3,1.3,3,3l0,0
			C181.4,466.1,180.1,467.4,178.5,467.4z"/>
		<g>
			<g>
				<path class="st35" d="M103.4,464.3c0,0-11.7-20.9-39.5-10.4C63.9,453.9,79.5,474.2,103.4,464.3z"/>
				<path class="st36" d="M100.2,463.4c0,0-14-6.4-33-8.7C67.2,454.8,78.6,459.7,100.2,463.4z"/>
			</g>
			<g>
				<path class="st35" d="M103.4,464.3c0,0,5.2-33.1-34.4-45.5C69,418.7,68.6,454.4,103.4,464.3z"/>
				<path class="st36" d="M100.6,460.5c0,0-9.8-19.1-28.7-38C71.9,422.5,80.2,437.8,100.6,460.5z"/>
			</g>
			<g>
				<path class="st35" d="M103.4,464.3c0,0,17.3-19.6-3.5-44.4C99.9,419.9,84.6,443.2,103.4,464.3z"/>
				<path class="st36" d="M103.1,460.6c0,0,1.6-16.7-2.9-37.1C100.2,423.5,99.2,437.1,103.1,460.6z"/>
			</g>
		</g>
		<g>
			<rect x="104.5" y="394.8" class="st37" width="44.5" height="63"/>
			<rect x="115.7" y="394.8" class="st38" width="22.1" height="63"/>
			<g>
				<path class="st39" d="M141.6,375.6c-0.2-0.1-0.3-0.3-0.5-0.4c-3.3-2.7-6.3-5.6-9.2-8.7c-1.2-1.3-2.3-2.5-3.5-3.8
					c-0.4-0.4-1.2-1.8-1.8-2c-4.6,5.1-9.1,10-14.4,14.4c-2.6,2.2-5.2,4.5-6.9,7.3c-2.5,4.1-1.9,7.8-0.9,12.2H149
					c1-4.5,1.6-8.1-1-12.3C146.4,379.8,144,377.6,141.6,375.6z"/>
				<path class="st40" d="M134.1,373.7c-1.1-1.9-2.3-3.7-3.4-5.7c-0.8-1.5-1.7-3.1-2.5-4.7c-0.2-0.3-0.8-1.6-1.4-2.6
					c-1.3,2.3-2.6,4.7-3.8,7c-2.2,4.1-5.2,7.9-6.9,12.4c-1,2.5-1.6,5.1-1.5,7.8c0,2.3,0.8,4.6,1.2,6.9h11h11c0.5-2.5,1.3-5,1.3-7.5
					c0-3-1-6-2.3-8.8C136,376.8,135,375.2,134.1,373.7z"/>
			</g>
			<polygon class="st39" points="151.3,464.5 102.1,464.5 104.5,457.8 149,457.8 			"/>
			<polygon class="st40" points="138.9,464.5 114.5,464.5 115.7,457.8 137.7,457.8 			"/>
			<path class="st41" d="M131.5,450l-3.1,3.5c-0.8,0.9-2.3,0.9-3.2,0L122,450c-2.6-2.9-4.1-6.7-4.1-10.7v-26.2
				c0-3.9,1.5-7.7,4.1-10.7l3.1-3.5c0.8-0.9,2.3-0.9,3.2,0l3.1,3.5c2.6,2.9,4.1,6.7,4.1,10.7v26.2
				C135.5,443.3,134.1,447.1,131.5,450z"/>
			<path class="st41" d="M112.6,448.7l-1.1,2.9c-0.5,1.3-2.3,1.3-2.7,0l-1.1-2.9c-0.8-2.2-1.2-4.4-1.2-6.8v-31.5
				c0-2.3,0.4-4.6,1.2-6.8l1.1-2.9c0.5-1.3,2.3-1.3,2.7,0l1.1,2.9c0.8,2.2,1.2,4.4,1.2,6.8V442C113.8,444.3,113.4,446.6,112.6,448.7
				z"/>
			<path class="st41" d="M145.8,448.7l-1.1,2.9c-0.5,1.3-2.3,1.3-2.7,0l-1.1-2.9c-0.8-2.2-1.2-4.4-1.2-6.8v-31.5
				c0-2.3,0.4-4.6,1.2-6.8l1.1-2.9c0.5-1.3,2.3-1.3,2.7,0l1.1,2.9c0.8,2.2,1.2,4.4,1.2,6.8V442C147,444.3,146.6,446.6,145.8,448.7z"
				/>
		</g>
	</g>
</g>
</svg>
